<?xml version="1.0" encoding="UTF-8" standalone="no"?>
<!-- Created with Inkscape (http://www.inkscape.org/) -->

<svg
   xmlns:dc="http://purl.org/dc/elements/1.1/"
   xmlns:cc="http://creativecommons.org/ns#"
   xmlns:rdf="http://www.w3.org/1999/02/22-rdf-syntax-ns#"
   xmlns:svg="http://www.w3.org/2000/svg"
   xmlns="http://www.w3.org/2000/svg"
   xmlns:sodipodi="http://sodipodi.sourceforge.net/DTD/sodipodi-0.dtd"
   xmlns:inkscape="http://www.inkscape.org/namespaces/inkscape"
   width="228.27281"
   height="174.02365"
   id="svg2816"
   version="1.1"
   inkscape:version="0.47pre3 r22311"
   sodipodi:docname="Ambulance.svg"
   inkscape:export-filename="/home/pointal/docs/acmo/DocumentsDiffusionInfo/Ambulance.png"
   inkscape:export-xdpi="150"
   inkscape:export-ydpi="150">
  <defs
     id="defs2818">
    <inkscape:perspective
       sodipodi:type="inkscape:persp3d"
       inkscape:vp_x="0 : 526.18109 : 1"
       inkscape:vp_y="0 : 1000 : 0"
       inkscape:vp_z="744.09448 : 526.18109 : 1"
       inkscape:persp3d-origin="372.04724 : 350.78739 : 1"
       id="perspective2824" />
    <inkscape:perspective
       id="perspective2856"
       inkscape:persp3d-origin="0.5 : 0.33333333 : 1"
       inkscape:vp_z="1 : 0.5 : 1"
       inkscape:vp_y="0 : 1000 : 0"
       inkscape:vp_x="0 : 0.5 : 1"
       sodipodi:type="inkscape:persp3d" />
    <inkscape:perspective
       id="perspective3681"
       inkscape:persp3d-origin="0.5 : 0.33333333 : 1"
       inkscape:vp_z="1 : 0.5 : 1"
       inkscape:vp_y="0 : 1000 : 0"
       inkscape:vp_x="0 : 0.5 : 1"
       sodipodi:type="inkscape:persp3d" />
    <inkscape:perspective
       id="perspective3703"
       inkscape:persp3d-origin="0.5 : 0.33333333 : 1"
       inkscape:vp_z="1 : 0.5 : 1"
       inkscape:vp_y="0 : 1000 : 0"
       inkscape:vp_x="0 : 0.5 : 1"
       sodipodi:type="inkscape:persp3d" />
    <inkscape:perspective
       id="perspective3621"
       inkscape:persp3d-origin="0.5 : 0.33333333 : 1"
       inkscape:vp_z="1 : 0.5 : 1"
       inkscape:vp_y="0 : 1000 : 0"
       inkscape:vp_x="0 : 0.5 : 1"
       sodipodi:type="inkscape:persp3d" />
    <inkscape:perspective
       id="perspective3643"
       inkscape:persp3d-origin="0.5 : 0.33333333 : 1"
       inkscape:vp_z="1 : 0.5 : 1"
       inkscape:vp_y="0 : 1000 : 0"
       inkscape:vp_x="0 : 0.5 : 1"
       sodipodi:type="inkscape:persp3d" />
    <inkscape:perspective
       id="perspective3665"
       inkscape:persp3d-origin="0.5 : 0.33333333 : 1"
       inkscape:vp_z="1 : 0.5 : 1"
       inkscape:vp_y="0 : 1000 : 0"
       inkscape:vp_x="0 : 0.5 : 1"
       sodipodi:type="inkscape:persp3d" />
    <inkscape:perspective
       id="perspective3687"
       inkscape:persp3d-origin="0.5 : 0.33333333 : 1"
       inkscape:vp_z="1 : 0.5 : 1"
       inkscape:vp_y="0 : 1000 : 0"
       inkscape:vp_x="0 : 0.5 : 1"
       sodipodi:type="inkscape:persp3d" />
  </defs>
  <sodipodi:namedview
     id="base"
     pagecolor="#ffffff"
     bordercolor="#666666"
     borderopacity="1.0"
     inkscape:pageopacity="0.0"
     inkscape:pageshadow="2"
     inkscape:zoom="0.98994949"
     inkscape:cx="379.49632"
     inkscape:cy="178.25694"
     inkscape:document-units="px"
     inkscape:current-layer="layer1"
     showgrid="false"
     inkscape:window-width="1488"
     inkscape:window-height="1082"
     inkscape:window-x="106"
     inkscape:window-y="0"
     inkscape:window-maximized="0" />
  <metadata
     id="metadata2821">
    <rdf:RDF>
      <cc:Work
         rdf:about="">
        <dc:format>image/svg+xml</dc:format>
        <dc:type
           rdf:resource="http://purl.org/dc/dcmitype/StillImage" />
        <dc:title />
      </cc:Work>
    </rdf:RDF>
  </metadata>
  <g
     inkscape:label="Calque 1"
     inkscape:groupmode="layer"
     id="layer1"
     transform="translate(-212.39607,-429.2657)">
    <path
       style="fill:#6b67f7;fill-opacity:1;stroke:#0b38bb;stroke-width:1.61651576px;stroke-linecap:butt;stroke-linejoin:miter;stroke-opacity:1"
       d="m 367.09397,477.41107 c 0,0 4.25752,-18.44296 10.37502,-18.31177 8.45993,0.18144 13.65132,17.09098 13.65132,17.09098"
       id="path2827"
       sodipodi:nodetypes="csc" />
    <path
       style="fill:none;stroke:#000000;stroke-width:6.54300022;stroke-linecap:butt;stroke-linejoin:miter;stroke-miterlimit:4;stroke-opacity:1;stroke-dasharray:none"
       d="m 215.66757,481.12091 c 0,-5.05077 6.39762,-2.52538 10.10152,-2.52538 3.7039,0 4.88241,2.02031 8.5863,2.02031 1.3501,0.0137 2.69961,-0.0523 4.04061,0 5.80968,2.15561 12.10731,0.93997 18.18275,1.01015 7.3286,0.3558 15.48235,2.28285 23.23351,3.03046 11.66464,1.81786 22.84479,-1.22344 34.34518,-1.01015 4.04061,0 8.08122,0 12.12183,0 23.86961,-2.40045 47.55607,-4.96595 71.72083,-5.05076 2.02031,0 4.04061,0 6.06092,0 1.8868,0.11005 3.39506,2.78156 5.05076,4.04061 7.91575,13.391 10.70661,24.80673 13.13198,39.39595 1.77262,3.92399 6.73448,11.64297 8.08122,17.17259 3.16634,1.96099 2.11096,6.05047 4.04061,9.09137 0.15059,0.30117 -0.23809,0.77206 0,1.01016 0.97089,0.38822 2.94641,5.10015 3.03046,7.07106 0.003,3.67053 0,7.50387 0,11.11168 -3.41702,5.80785 -13.3058,8.55983 -20.20305,10.10153 -2.69374,0 -5.38748,0 -8.08122,0 -15.52409,0.33849 -30.97291,-0.11763 -46.46702,-1.01016 -24.93443,-0.98357 -49.83471,1.01016 -74.75128,1.01016 -7.75902,0.28113 -15.47178,-1.46843 -23.23351,-2.02031 -8.88677,0.68691 -17.54289,-2.61629 -26.26397,-3.03046 -5.13659,-0.99148 -10.09938,-2.29274 -15.15229,-2.0203 -0.72954,-5.27025 -2.17085,-10.97253 -4.04061,-16.16244 -1.05185,-4.87846 -3.16464,-9.18102 -3.03046,-14.14214 0,-3.03046 0,-6.06091 0,-9.09137 -0.0156,-10.14195 1.50645,-19.93529 2.02031,-30.30458 0,-5.05076 -2.52538,-14.64721 -2.52538,-19.69798 z"
       id="path2826"
       sodipodi:nodetypes="czccccccccccccccccccccccccccz" />
    <path
       style="fill:none;stroke:#000000;stroke-width:4.69999981;stroke-linecap:butt;stroke-linejoin:miter;stroke-miterlimit:4;stroke-opacity:1;stroke-dasharray:none"
       d="m 360.25154,492.35252 c -1.36447,2.55474 1.30409,4.18723 2.49475,11.38479 1.26873,7.6695 1.68327,15.46709 2.0203,23.23351 0.073,1.682 -0.57314,3.46773 0,5.05076 0.89527,2.47277 2.6692,4.94546 5.05077,6.06092 0.30493,0.14282 0.67343,0 1.01015,0 2.0203,0 4.04103,0.0413 6.06091,0 2.3696,-0.0485 4.97412,0.0421 7.10434,-0.29061 16.84003,-2.63029 24.08119,2.11646 26.39703,-4.84945 3.28866,-9.8921 -6.15231,-39.91971 -10.69327,-43.50309 -1.90028,-1.49956 -10.30175,-0.56218 -15.44116,-0.26786 -8.05802,0.46146 -20.01791,-4.28185 -24.00382,3.18103 z"
       id="path2832"
       sodipodi:nodetypes="csaaaaasssas" />
    <path
       style="fill:#e20000;fill-opacity:1;stroke:#360000;stroke-width:1.60146296px;stroke-linecap:butt;stroke-linejoin:miter;stroke-opacity:1"
       d="m 301.0251,498.55835 c 2.9408,0.55619 8.26679,3.38924 8.26679,6.33141 1.61413,7.78481 -0.12194,19.21585 0.97711,20.34118 1.9246,1.97068 22.47895,-1.26627 25.86919,1.99433 2.76401,2.65831 3.23058,9.88148 0.0172,12.89875 -3.15891,2.96612 -21.47659,-0.50517 -23.21007,2.33451 -1.69478,2.77631 1.06821,14.94905 0.11278,17.46496 -1.10645,2.9135 -13.86046,2.50604 -16.11624,0.68986 -3.19264,-2.57048 1.3869,-17.4123 -2.53018,-19.31796 -3.27058,-1.59114 -20.34818,0.64506 -21.94067,-0.27981 -2.07457,-1.20485 -3.32525,-11.28749 -1.20634,-13.96588 1.48699,-1.87962 18.01311,-0.83943 21.31888,-0.83943 6.06683,-0.42252 -8.40539,-25.81575 8.44157,-27.65192 z"
       id="path2834"
       sodipodi:nodetypes="ccssssssssscc" />
    <path
       style="fill:#ffffff;fill-opacity:1;stroke:#000000;stroke-width:5.71700001;stroke-linecap:butt;stroke-linejoin:miter;stroke-miterlimit:4;stroke-opacity:1;stroke-dasharray:none"
       d="m 251.52798,559.78656 c -20.25185,9.7881 -17.54321,44.39467 5.05077,36.11294 22.59398,-8.28173 15.20108,-45.90105 -5.05077,-36.11294 z"
       id="path2828"
       sodipodi:nodetypes="czz" />
    <path
       style="fill:#ffffff;fill-opacity:1;stroke:#000000;stroke-width:5.71700001;stroke-linecap:butt;stroke-linejoin:miter;stroke-miterlimit:4;stroke-opacity:1;stroke-dasharray:none"
       d="m 391.30265,563.0493 c -20.25185,9.7881 -17.54321,44.39467 5.05077,36.11294 22.59398,-8.28173 15.20108,-45.90105 -5.05077,-36.11294 z"
       id="path2828-4"
       sodipodi:nodetypes="czz" />
    <path
       style="fill:#6b67f7;fill-opacity:1;stroke:#0b38bb;stroke-width:0.28749999;stroke-linecap:round;stroke-miterlimit:4;stroke-opacity:1;stroke-dasharray:none"
       id="path3603"
       d="m 339.10032,461.22424 c 1.70116,-4.62225 20.47632,4.89059 21.08252,7.39965 -3.06768,0.90497 -22.78367,-2.77739 -21.08252,-7.39965 z"
       sodipodi:nodetypes="ccz" />
    <path
       style="fill:#6b67f7;fill-opacity:1;stroke:#0b38bb;stroke-width:0.28749999;stroke-linecap:round;stroke-miterlimit:4;stroke-opacity:1;stroke-dasharray:none"
       id="path3603-0"
       d="m 421.49515,460.67785 c -1.70116,-4.62225 -20.47632,4.89059 -21.08252,7.39965 3.06768,0.90497 22.78367,-2.77739 21.08252,-7.39965 z"
       sodipodi:nodetypes="ccz" />
    <path
       style="fill:#6b67f7;fill-opacity:1;stroke:#0b38bb;stroke-width:0.28749999;stroke-linecap:round;stroke-miterlimit:4;stroke-opacity:1;stroke-dasharray:none"
       id="path3603-3"
       d="m 349.21742,440.45932 c 3.46027,-3.50508 16.62129,12.92015 16.13569,15.45532 -3.16733,-0.44457 -19.59596,-11.95021 -16.13569,-15.45532 z"
       sodipodi:nodetypes="ccz" />
    <path
       style="fill:#6b67f7;fill-opacity:1;stroke:#0b38bb;stroke-width:0.28749999;stroke-linecap:round;stroke-miterlimit:4;stroke-opacity:1;stroke-dasharray:none"
       id="path3603-3-6"
       d="m 408.3911,439.84003 c -3.46027,-3.50508 -16.62129,12.92015 -16.13569,15.45532 3.16733,-0.44457 19.59596,-11.95021 16.13569,-15.45532 z"
       sodipodi:nodetypes="ccz" />
    <path
       style="fill:#6b67f7;fill-opacity:1;stroke:#0b38bb;stroke-width:0.28749999;stroke-linecap:round;stroke-miterlimit:4;stroke-opacity:1;stroke-dasharray:none"
       id="path3603-3-6-1"
       d="m 382.52171,429.42069 c -4.89262,-0.56682 -4.87201,20.48075 -2.90618,22.15359 2.19147,-2.32961 7.79882,-21.58674 2.90618,-22.15359 z"
       sodipodi:nodetypes="ccz"
       inkscape:transform-center-x="-0.97520204"
       inkscape:transform-center-y="-1.4856419" />
  </g>
</svg>
