<?xml version="1.0"?><svg width="640" height="480" xmlns="http://www.w3.org/2000/svg">
 <title>Blue house</title>
 <metadata id="metadata7">image/svg+xml</metadata>
 <g>
  <path d="m486.805847,224.504593l0,0zm0,0l-173.809326,-150.59639l-173.909393,150.661667l0,215.286911c0,5.559967 4.592163,10.020172 10.275101,10.020172l108.689224,0l0,-94.392029c0,-5.560028 4.558807,-10.052795 10.24176,-10.052795l89.30658,0c5.682922,0 10.24176,4.492828 10.24176,10.052795l0,94.392029l108.722565,0c5.682922,0 10.24176,-4.460144 10.24173,-10.020172l0,-215.352188zm-347.718735,0.065277l0,0z" id="rect2391" stroke-miterlimit="4" stroke-width="5" stroke="#000000" fill="#ff0000"/>
  <path d="m312.589203,33l-220.589211,190.476715l23.236534,25.564102l198.255081,-171.204651l198.20993,171.204651l23.191345,-25.564102l-220.544037,-190.476715l-0.857239,0.96801l-0.902405,-0.96801z" id="path2399" stroke-miterlimit="4" stroke-width="5" stroke="#000000" fill="#7f0000"/>
  <path d="m152.087051,85.449043l58.571442,0l-0.510391,34.691093l-58.06105,52.451752l0,-87.142845z" id="rect2404" stroke-miterlimit="4" stroke-width="5" stroke="#000000" fill="#7f3f00"/>
  <title>Layer 1</title>
 </g>
</svg>